<svg xmlns="http://www.w3.org/2000/svg" version="1.1" xmlns:xlink="http://www.w3.org/1999/xlink" xmlns:svgjs="http://svgjs.dev/svgjs" width="100%" height="100%" viewBox="0 0 1000 1800"><rect width="100%" height="100%" x="0" y="0" fill="#e2d1f9"/><g><rect width="333.3333333333333" height="333.3333333333333" y="285.39315692601485" fill="#317773" transform="matrix(0.47497646377063635,0,0,0.47497646377063635,0,85.28222154314399)" x="263.1709289550781"/><path d="M354.83761098665445 427.0673472832511L354.83761098665445 414.56546840018876L367.3394898697167 414.56546840018876L367.3394898697167 427.0673472832511L354.83761098665445 427.0673472832511ZM354.83761098665445 439.5692261663134L354.83761098665445 427.0673472832511L367.3394898697167 427.0673472832511L367.3394898697167 439.5692261663134L354.83761098665445 439.5692261663134ZM354.83761098665445 452.0485384809947L354.83761098665445 439.5692261663134L367.3394898697167 439.5692261663134L367.3394898697167 452.0485384809947L354.83761098665445 452.0485384809947ZM354.83761098665445 464.550417364057L354.83761098665445 452.0485384809947L367.3394898697167 452.0485384809947L367.3394898697167 464.550417364057L354.83761098665445 464.550417364057ZM354.83761098665445 489.5541751301816L354.83761098665445 477.0522962471193L367.3394898697167 477.0522962471193L367.3394898697167 489.5541751301816L354.83761098665445 489.5541751301816ZM354.83761098665445 502.0560540132439L354.83761098665445 489.5541751301816L367.3394898697167 489.5541751301816L367.3394898697167 502.0560540132439L354.83761098665445 502.0560540132439ZM354.83761098665445 514.5579328963063L354.83761098665445 502.0560540132439L367.3394898697167 502.0560540132439L367.3394898697167 514.5579328963063L354.83761098665445 514.5579328963063ZM354.83761098665445 527.0598117793685L354.83761098665445 514.5579328963063L367.3394898697167 514.5579328963063L367.3394898697167 527.0598117793685L354.83761098665445 527.0598117793685ZM367.3394898697167 389.5617106340642L367.3394898697167 377.05983175100187L379.84136875277903 377.05983175100187L379.84136875277903 389.5617106340642L367.3394898697167 389.5617106340642ZM379.84136875277903 389.5617106340642L379.84136875277903 377.05983175100187L392.34324763584135 377.05983175100187L392.34324763584135 389.5617106340642L379.84136875277903 389.5617106340642ZM392.34324763584135 389.5617106340642L392.34324763584135 377.05983175100187L404.8451265189036 377.05983175100187L404.8451265189036 389.5617106340642L392.34324763584135 389.5617106340642ZM404.8451265189036 402.0635895171265L404.8451265189036 389.5617106340642L417.32443883358496 389.5617106340642L417.32443883358496 402.0635895171265L404.8451265189036 402.0635895171265ZM417.32443883358496 414.56546840018876L417.32443883358496 402.0635895171265L429.8263177166473 402.0635895171265L429.8263177166473 414.56546840018876L417.32443883358496 414.56546840018876ZM417.32443883358496 427.0673472832511L417.32443883358496 414.56546840018876L429.8263177166473 414.56546840018876L429.8263177166473 427.0673472832511L417.32443883358496 427.0673472832511ZM417.32443883358496 439.5692261663134L417.32443883358496 427.0673472832511L429.8263177166473 427.0673472832511L429.8263177166473 439.5692261663134L417.32443883358496 439.5692261663134ZM417.32443883358496 452.0485384809947L417.32443883358496 439.5692261663134L429.8263177166473 439.5692261663134L429.8263177166473 452.0485384809947L417.32443883358496 452.0485384809947ZM417.32443883358496 464.550417364057L417.32443883358496 452.0485384809947L429.8263177166473 452.0485384809947L429.8263177166473 464.550417364057L417.32443883358496 464.550417364057ZM404.8451265189036 477.0522962471193L404.8451265189036 464.550417364057L417.32443883358496 464.550417364057L417.32443883358496 477.0522962471193L404.8451265189036 477.0522962471193ZM392.34324763584135 489.5541751301816L392.34324763584135 477.0522962471193L404.8451265189036 477.0522962471193L404.8451265189036 489.5541751301816L392.34324763584135 489.5541751301816ZM379.84136875277903 489.5541751301816L379.84136875277903 477.0522962471193L392.34324763584135 477.0522962471193L392.34324763584135 489.5541751301816L379.84136875277903 489.5541751301816ZM367.3394898697167 477.0522962471193L367.3394898697167 464.550417364057L379.84136875277903 464.550417364057L379.84136875277903 477.0522962471193L367.3394898697167 477.0522962471193ZM304.8526620227862 402.0635895171265L304.8526620227862 389.5617106340642L317.3545409058485 389.5617106340642L317.3545409058485 402.0635895171265L304.8526620227862 402.0635895171265ZM304.8526620227862 414.56546840018876L304.8526620227862 402.0635895171265L317.3545409058485 402.0635895171265L317.3545409058485 414.56546840018876L304.8526620227862 414.56546840018876ZM317.3545409058485 389.5617106340642L317.3545409058485 377.05983175100187L329.8564197889108 377.05983175100187L329.8564197889108 389.5617106340642L317.3545409058485 389.5617106340642ZM329.8564197889108 389.5617106340642L329.8564197889108 377.05983175100187L342.33573210359214 377.05983175100187L342.33573210359214 389.5617106340642L329.8564197889108 389.5617106340642ZM342.33573210359214 389.5617106340642L342.33573210359214 377.05983175100187L354.83761098665445 377.05983175100187L354.83761098665445 389.5617106340642L342.33573210359214 389.5617106340642ZM317.3545409058485 427.0673472832511L317.3545409058485 414.56546840018876L329.8564197889108 414.56546840018876L329.8564197889108 427.0673472832511L317.3545409058485 427.0673472832511ZM317.3545409058485 439.5692261663134L317.3545409058485 427.0673472832511L329.8564197889108 427.0673472832511L329.8564197889108 439.5692261663134L317.3545409058485 439.5692261663134ZM304.8526620227862 439.5692261663134L304.8526620227862 427.0673472832511L317.3545409058485 427.0673472832511L317.3545409058485 439.5692261663134L304.8526620227862 439.5692261663134ZM354.83761098665445 402.0635895171265L354.83761098665445 389.5617106340642L367.3394898697167 389.5617106340642L367.3394898697167 402.0635895171265L354.83761098665445 402.0635895171265ZM354.83761098665445 414.56546840018876L354.83761098665445 402.0635895171265L367.3394898697167 402.0635895171265L367.3394898697167 414.56546840018876L354.83761098665445 414.56546840018876ZM342.33573210359214 402.0635895171265L342.33573210359214 389.5617106340642L354.83761098665445 389.5617106340642L354.83761098665445 402.0635895171265L342.33573210359214 402.0635895171265ZM354.83761098665445 477.0522962471193L354.83761098665445 464.550417364057L367.3394898697167 464.550417364057L367.3394898697167 477.0522962471193L354.83761098665445 477.0522962471193ZM342.33573210359214 477.0522962471193L342.33573210359214 464.550417364057L354.83761098665445 464.550417364057L354.83761098665445 477.0522962471193L342.33573210359214 477.0522962471193ZM329.8564197889108 477.0522962471193L329.8564197889108 464.550417364057L342.33573210359214 464.550417364057L342.33573210359214 477.0522962471193L329.8564197889108 477.0522962471193ZM317.3545409058485 489.5541751301816L317.3545409058485 477.0522962471193L329.8564197889108 477.0522962471193L329.8564197889108 489.5541751301816L317.3545409058485 489.5541751301816ZM304.8526620227862 489.5541751301816L304.8526620227862 477.0522962471193L317.3545409058485 477.0522962471193L317.3545409058485 489.5541751301816L304.8526620227862 489.5541751301816ZM454.8300754827718 427.0673472832511L454.8300754827718 414.56546840018876L467.3319543658342 414.56546840018876L467.3319543658342 427.0673472832511L454.8300754827718 427.0673472832511ZM442.32819659970954 414.56546840018876L442.32819659970954 402.0635895171265L454.8300754827718 402.0635895171265L454.8300754827718 414.56546840018876L442.32819659970954 414.56546840018876ZM442.32819659970954 402.0635895171265L442.32819659970954 389.5617106340642L454.8300754827718 389.5617106340642L454.8300754827718 402.0635895171265L442.32819659970954 402.0635895171265ZM454.8300754827718 389.5617106340642L454.8300754827718 377.05983175100187L467.3319543658342 377.05983175100187L467.3319543658342 389.5617106340642L454.8300754827718 389.5617106340642ZM467.3319543658342 389.5617106340642L467.3319543658342 377.05983175100187L479.83383324889644 377.05983175100187L479.83383324889644 389.5617106340642L467.3319543658342 389.5617106340642ZM479.83383324889644 389.5617106340642L479.83383324889644 377.05983175100187L492.33571213195876 377.05983175100187L492.33571213195876 389.5617106340642L479.83383324889644 389.5617106340642ZM492.33571213195876 389.5617106340642L492.33571213195876 377.05983175100187L504.8150244466401 377.05983175100187L504.8150244466401 389.5617106340642L492.33571213195876 389.5617106340642ZM504.8150244466401 402.0635895171265L504.8150244466401 389.5617106340642L517.3169033297024 389.5617106340642L517.3169033297024 402.0635895171265L504.8150244466401 402.0635895171265ZM517.3169033297024 414.56546840018876L517.3169033297024 402.0635895171265L529.8187822127646 402.0635895171265L529.8187822127646 414.56546840018876L517.3169033297024 414.56546840018876ZM529.8187822127646 414.56546840018876L529.8187822127646 402.0635895171265L542.320661095827 402.0635895171265L542.320661095827 414.56546840018876L529.8187822127646 414.56546840018876ZM542.320661095827 402.0635895171265L542.320661095827 389.5617106340642L554.8225399788893 389.5617106340642L554.8225399788893 402.0635895171265L542.320661095827 402.0635895171265ZM542.320661095827 389.5617106340642L542.320661095827 377.05983175100187L554.8225399788893 377.05983175100187L554.8225399788893 389.5617106340642L542.320661095827 389.5617106340642ZM529.8187822127646 389.5617106340642L529.8187822127646 377.05983175100187L542.320661095827 377.05983175100187L542.320661095827 389.5617106340642L529.8187822127646 389.5617106340642ZM504.8150244466401 427.0673472832511L504.8150244466401 414.56546840018876L517.3169033297024 414.56546840018876L517.3169033297024 427.0673472832511L504.8150244466401 427.0673472832511ZM504.8150244466401 439.5692261663134L504.8150244466401 427.0673472832511L517.3169033297024 427.0673472832511L517.3169033297024 439.5692261663134L504.8150244466401 439.5692261663134ZM504.8150244466401 452.0485384809947L504.8150244466401 439.5692261663134L517.3169033297024 439.5692261663134L517.3169033297024 452.0485384809947L504.8150244466401 452.0485384809947ZM517.3169033297024 452.0485384809947L517.3169033297024 439.5692261663134L529.8187822127646 439.5692261663134L529.8187822127646 452.0485384809947L517.3169033297024 452.0485384809947ZM517.3169033297024 464.550417364057L517.3169033297024 452.0485384809947L529.8187822127646 452.0485384809947L529.8187822127646 464.550417364057L517.3169033297024 464.550417364057ZM529.8187822127646 464.550417364057L529.8187822127646 452.0485384809947L542.320661095827 452.0485384809947L542.320661095827 464.550417364057L529.8187822127646 464.550417364057ZM529.8187822127646 477.0522962471193L529.8187822127646 464.550417364057L542.320661095827 464.550417364057L542.320661095827 477.0522962471193L529.8187822127646 477.0522962471193ZM542.320661095827 477.0522962471193L542.320661095827 464.550417364057L554.8225399788893 464.550417364057L554.8225399788893 477.0522962471193L542.320661095827 477.0522962471193ZM542.320661095827 489.5541751301816L542.320661095827 477.0522962471193L554.8225399788893 477.0522962471193L554.8225399788893 489.5541751301816L542.320661095827 489.5541751301816ZM542.320661095827 502.0560540132439L542.320661095827 489.5541751301816L554.8225399788893 489.5541751301816L554.8225399788893 502.0560540132439L542.320661095827 502.0560540132439ZM529.8187822127646 514.5579328963063L529.8187822127646 502.0560540132439L542.320661095827 502.0560540132439L542.320661095827 514.5579328963063L529.8187822127646 514.5579328963063ZM517.3169033297024 527.0598117793685L517.3169033297024 514.5579328963063L529.8187822127646 514.5579328963063L529.8187822127646 527.0598117793685L517.3169033297024 527.0598117793685ZM504.8150244466401 527.0598117793685L504.8150244466401 514.5579328963063L517.3169033297024 514.5579328963063L517.3169033297024 527.0598117793685L504.8150244466401 527.0598117793685ZM492.33571213195876 527.0598117793685L492.33571213195876 514.5579328963063L504.8150244466401 514.5579328963063L504.8150244466401 527.0598117793685L492.33571213195876 527.0598117793685ZM479.83383324889644 527.0598117793685L479.83383324889644 514.5579328963063L492.33571213195876 514.5579328963063L492.33571213195876 527.0598117793685L479.83383324889644 527.0598117793685ZM467.3319543658342 514.5579328963063L467.3319543658342 502.0560540132439L479.83383324889644 502.0560540132439L479.83383324889644 514.5579328963063L467.3319543658342 514.5579328963063ZM454.8300754827718 502.0560540132439L454.8300754827718 489.5541751301816L467.3319543658342 489.5541751301816L467.3319543658342 502.0560540132439L454.8300754827718 502.0560540132439ZM454.8300754827718 489.5541751301816L454.8300754827718 477.0522962471193L467.3319543658342 477.0522962471193L467.3319543658342 489.5541751301816L454.8300754827718 489.5541751301816ZM467.3319543658342 477.0522962471193L467.3319543658342 464.550417364057L479.83383324889644 464.550417364057L479.83383324889644 477.0522962471193L467.3319543658342 477.0522962471193ZM479.83383324889644 464.550417364057L479.83383324889644 452.0485384809947L492.33571213195876 452.0485384809947L492.33571213195876 464.550417364057L479.83383324889644 464.550417364057ZM479.83383324889644 452.0485384809947L479.83383324889644 439.5692261663134L492.33571213195876 439.5692261663134L492.33571213195876 452.0485384809947L479.83383324889644 452.0485384809947ZM467.3319543658342 452.0485384809947L467.3319543658342 439.5692261663134L479.83383324889644 439.5692261663134L479.83383324889644 452.0485384809947L467.3319543658342 452.0485384809947ZM529.8187822127646 439.5692261663134L529.8187822127646 427.0673472832511L542.320661095827 427.0673472832511L542.320661095827 439.5692261663134L529.8187822127646 439.5692261663134ZM542.320661095827 439.5692261663134L542.320661095827 427.0673472832511L554.8225399788893 427.0673472832511L554.8225399788893 439.5692261663134L542.320661095827 439.5692261663134Z " fill="#e2d1f9" transform="matrix(0.47497646377063635,0,0,0.47497646377063635,0,85.28222154314399)"/><path d="M729.8225505618498 427.0673472832511L729.8225505618498 414.56546840018876L742.324429444912 414.56546840018876L742.324429444912 427.0673472832511L729.8225505618498 427.0673472832511ZM729.8225505618498 439.5692261663134L729.8225505618498 427.0673472832511L742.324429444912 427.0673472832511L742.324429444912 439.5692261663134L729.8225505618498 439.5692261663134ZM729.8225505618498 452.0485384809947L729.8225505618498 439.5692261663134L742.324429444912 439.5692261663134L742.324429444912 452.0485384809947L729.8225505618498 452.0485384809947ZM729.8225505618498 464.550417364057L729.8225505618498 452.0485384809947L742.324429444912 452.0485384809947L742.324429444912 464.550417364057L729.8225505618498 464.550417364057ZM729.8225505618498 489.5541751301816L729.8225505618498 477.0522962471193L742.324429444912 477.0522962471193L742.324429444912 489.5541751301816L729.8225505618498 489.5541751301816ZM729.8225505618498 502.0560540132439L729.8225505618498 489.5541751301816L742.324429444912 489.5541751301816L742.324429444912 502.0560540132439L729.8225505618498 502.0560540132439ZM729.8225505618498 514.5579328963063L729.8225505618498 502.0560540132439L742.324429444912 502.0560540132439L742.324429444912 514.5579328963063L729.8225505618498 514.5579328963063ZM729.8225505618498 527.0598117793685L729.8225505618498 514.5579328963063L742.324429444912 514.5579328963063L742.324429444912 527.0598117793685L729.8225505618498 527.0598117793685ZM742.324429444912 389.5617106340642L742.324429444912 377.05983175100187L754.8263083279743 377.05983175100187L754.8263083279743 389.5617106340642L742.324429444912 389.5617106340642ZM754.8263083279743 389.5617106340642L754.8263083279743 377.05983175100187L767.3281872110366 377.05983175100187L767.3281872110366 389.5617106340642L754.8263083279743 389.5617106340642ZM767.3281872110366 389.5617106340642L767.3281872110366 377.05983175100187L779.8300660940989 377.05983175100187L779.8300660940989 389.5617106340642L767.3281872110366 389.5617106340642ZM779.8300660940989 402.0635895171265L779.8300660940989 389.5617106340642L792.3093784087803 389.5617106340642L792.3093784087803 402.0635895171265L779.8300660940989 402.0635895171265ZM792.3093784087803 414.56546840018876L792.3093784087803 402.0635895171265L804.8112572918426 402.0635895171265L804.8112572918426 414.56546840018876L792.3093784087803 414.56546840018876ZM792.3093784087803 427.0673472832511L792.3093784087803 414.56546840018876L804.8112572918426 414.56546840018876L804.8112572918426 427.0673472832511L792.3093784087803 427.0673472832511ZM792.3093784087803 439.5692261663134L792.3093784087803 427.0673472832511L804.8112572918426 427.0673472832511L804.8112572918426 439.5692261663134L792.3093784087803 439.5692261663134ZM792.3093784087803 452.0485384809947L792.3093784087803 439.5692261663134L804.8112572918426 439.5692261663134L804.8112572918426 452.0485384809947L792.3093784087803 452.0485384809947ZM792.3093784087803 464.550417364057L792.3093784087803 452.0485384809947L804.8112572918426 452.0485384809947L804.8112572918426 464.550417364057L792.3093784087803 464.550417364057ZM779.8300660940989 477.0522962471193L779.8300660940989 464.550417364057L792.3093784087803 464.550417364057L792.3093784087803 477.0522962471193L779.8300660940989 477.0522962471193ZM767.3281872110366 489.5541751301816L767.3281872110366 477.0522962471193L779.8300660940989 477.0522962471193L779.8300660940989 489.5541751301816L767.3281872110366 489.5541751301816ZM754.8263083279743 489.5541751301816L754.8263083279743 477.0522962471193L767.3281872110366 477.0522962471193L767.3281872110366 489.5541751301816L754.8263083279743 489.5541751301816ZM742.324429444912 477.0522962471193L742.324429444912 464.550417364057L754.8263083279743 464.550417364057L754.8263083279743 477.0522962471193L742.324429444912 477.0522962471193ZM679.8376015979816 402.0635895171265L679.8376015979816 389.5617106340642L692.3394804810438 389.5617106340642L692.3394804810438 402.0635895171265L679.8376015979816 402.0635895171265ZM679.8376015979816 414.56546840018876L679.8376015979816 402.0635895171265L692.3394804810438 402.0635895171265L692.3394804810438 414.56546840018876L679.8376015979816 414.56546840018876ZM692.3394804810438 389.5617106340642L692.3394804810438 377.05983175100187L704.8413593641061 377.05983175100187L704.8413593641061 389.5617106340642L692.3394804810438 389.5617106340642ZM704.8413593641061 389.5617106340642L704.8413593641061 377.05983175100187L717.3206716787874 377.05983175100187L717.3206716787874 389.5617106340642L704.8413593641061 389.5617106340642ZM717.3206716787874 389.5617106340642L717.3206716787874 377.05983175100187L729.8225505618498 377.05983175100187L729.8225505618498 389.5617106340642L717.3206716787874 389.5617106340642ZM692.3394804810438 427.0673472832511L692.3394804810438 414.56546840018876L704.8413593641061 414.56546840018876L704.8413593641061 427.0673472832511L692.3394804810438 427.0673472832511ZM692.3394804810438 439.5692261663134L692.3394804810438 427.0673472832511L704.8413593641061 427.0673472832511L704.8413593641061 439.5692261663134L692.3394804810438 439.5692261663134ZM679.8376015979816 439.5692261663134L679.8376015979816 427.0673472832511L692.3394804810438 427.0673472832511L692.3394804810438 439.5692261663134L679.8376015979816 439.5692261663134ZM729.8225505618498 402.0635895171265L729.8225505618498 389.5617106340642L742.324429444912 389.5617106340642L742.324429444912 402.0635895171265L729.8225505618498 402.0635895171265ZM729.8225505618498 414.56546840018876L729.8225505618498 402.0635895171265L742.324429444912 402.0635895171265L742.324429444912 414.56546840018876L729.8225505618498 414.56546840018876ZM717.3206716787874 402.0635895171265L717.3206716787874 389.5617106340642L729.8225505618498 389.5617106340642L729.8225505618498 402.0635895171265L717.3206716787874 402.0635895171265ZM729.8225505618498 477.0522962471193L729.8225505618498 464.550417364057L742.324429444912 464.550417364057L742.324429444912 477.0522962471193L729.8225505618498 477.0522962471193ZM717.3206716787874 477.0522962471193L717.3206716787874 464.550417364057L729.8225505618498 464.550417364057L729.8225505618498 477.0522962471193L717.3206716787874 477.0522962471193ZM704.8413593641061 477.0522962471193L704.8413593641061 464.550417364057L717.3206716787874 464.550417364057L717.3206716787874 477.0522962471193L704.8413593641061 477.0522962471193ZM692.3394804810438 489.5541751301816L692.3394804810438 477.0522962471193L704.8413593641061 477.0522962471193L704.8413593641061 489.5541751301816L692.3394804810438 489.5541751301816ZM679.8376015979816 489.5541751301816L679.8376015979816 477.0522962471193L692.3394804810438 477.0522962471193L692.3394804810438 489.5541751301816L679.8376015979816 489.5541751301816ZM829.8150150579671 489.5541751301816L829.8150150579671 477.0522962471193L842.3168939410294 477.0522962471193L842.3168939410294 489.5541751301816L829.8150150579671 489.5541751301816ZM854.8187728240916 489.5541751301816L854.8187728240916 477.0522962471193L867.320651707154 477.0522962471193L867.320651707154 489.5541751301816L854.8187728240916 489.5541751301816ZM842.3168939410294 477.0522962471193L842.3168939410294 464.550417364057L854.8187728240916 464.550417364057L854.8187728240916 477.0522962471193L842.3168939410294 477.0522962471193ZM842.3168939410294 464.550417364057L842.3168939410294 452.0485384809947L854.8187728240916 452.0485384809947L854.8187728240916 464.550417364057L842.3168939410294 464.550417364057ZM842.3168939410294 452.0485384809947L842.3168939410294 439.5692261663134L854.8187728240916 439.5692261663134L854.8187728240916 452.0485384809947L842.3168939410294 452.0485384809947ZM842.3168939410294 439.5692261663134L842.3168939410294 427.0673472832511L854.8187728240916 427.0673472832511L854.8187728240916 439.5692261663134L842.3168939410294 439.5692261663134ZM829.8150150579671 427.0673472832511L829.8150150579671 414.56546840018876L842.3168939410294 414.56546840018876L842.3168939410294 427.0673472832511L829.8150150579671 427.0673472832511ZM817.3131361749048 439.5692261663134L817.3131361749048 427.0673472832511L829.8150150579671 427.0673472832511L829.8150150579671 439.5692261663134L817.3131361749048 439.5692261663134ZM842.3168939410294 389.5617106340642L842.3168939410294 377.05983175100187L854.8187728240916 377.05983175100187L854.8187728240916 389.5617106340642L842.3168939410294 389.5617106340642ZM854.8187728240916 427.0673472832511L854.8187728240916 414.56546840018876L867.320651707154 414.56546840018876L867.320651707154 427.0673472832511L854.8187728240916 427.0673472832511ZM879.7999640218354 439.5692261663134L879.7999640218354 427.0673472832511L892.3018429048976 427.0673472832511L892.3018429048976 439.5692261663134L879.7999640218354 439.5692261663134ZM892.3018429048976 427.0673472832511L892.3018429048976 414.56546840018876L904.80372178796 414.56546840018876L904.80372178796 427.0673472832511L892.3018429048976 427.0673472832511ZM904.80372178796 439.5692261663134L904.80372178796 427.0673472832511L917.3056006710221 427.0673472832511L917.3056006710221 439.5692261663134L904.80372178796 439.5692261663134ZM904.80372178796 452.0485384809947L904.80372178796 439.5692261663134L917.3056006710221 439.5692261663134L917.3056006710221 452.0485384809947L904.80372178796 452.0485384809947ZM904.80372178796 464.550417364057L904.80372178796 452.0485384809947L917.3056006710221 452.0485384809947L917.3056006710221 464.550417364057L904.80372178796 464.550417364057ZM917.3056006710221 489.5541751301816L917.3056006710221 477.0522962471193L929.8074795540845 477.0522962471193L929.8074795540845 489.5541751301816L917.3056006710221 489.5541751301816ZM917.3056006710221 427.0673472832511L917.3056006710221 414.56546840018876L929.8074795540845 414.56546840018876L929.8074795540845 427.0673472832511L917.3056006710221 427.0673472832511ZM929.8074795540845 427.0673472832511L929.8074795540845 414.56546840018876L942.3093584371468 414.56546840018876L942.3093584371468 427.0673472832511L929.8074795540845 427.0673472832511ZM942.3093584371468 439.5692261663134L942.3093584371468 427.0673472832511L954.7886707518281 427.0673472832511L954.7886707518281 439.5692261663134L942.3093584371468 439.5692261663134ZM904.80372178796 477.0522962471193L904.80372178796 464.550417364057L917.3056006710221 464.550417364057L917.3056006710221 477.0522962471193L904.80372178796 477.0522962471193ZM892.3018429048976 489.5541751301816L892.3018429048976 477.0522962471193L904.80372178796 477.0522962471193L904.80372178796 489.5541751301816L892.3018429048976 489.5541751301816ZM879.7999640218354 489.5541751301816L879.7999640218354 477.0522962471193L892.3018429048976 477.0522962471193L892.3018429048976 489.5541751301816L879.7999640218354 489.5541751301816ZM867.320651707154 477.0522962471193L867.320651707154 464.550417364057L879.7999640218354 464.550417364057L879.7999640218354 477.0522962471193L867.320651707154 477.0522962471193ZM929.8074795540845 477.0522962471193L929.8074795540845 464.550417364057L942.3093584371468 464.550417364057L942.3093584371468 477.0522962471193L929.8074795540845 477.0522962471193ZM892.3018429048976 464.550417364057L892.3018429048976 452.0485384809947L904.80372178796 452.0485384809947L904.80372178796 464.550417364057L892.3018429048976 464.550417364057ZM917.3056006710221 452.0485384809947L917.3056006710221 439.5692261663134L929.8074795540845 439.5692261663134L929.8074795540845 452.0485384809947L917.3056006710221 452.0485384809947ZM967.2905496348905 489.5541751301816L967.2905496348905 477.0522962471193L979.7924285179528 477.0522962471193L979.7924285179528 489.5541751301816L967.2905496348905 489.5541751301816ZM992.294307401015 489.5541751301816L992.294307401015 477.0522962471193L1004.7961862840773 477.0522962471193L1004.7961862840773 489.5541751301816L992.294307401015 489.5541751301816ZM1004.7961862840773 489.5541751301816L1004.7961862840773 477.0522962471193L1017.2980651671396 477.0522962471193L1017.2980651671396 489.5541751301816L1004.7961862840773 489.5541751301816ZM979.7924285179528 477.0522962471193L979.7924285179528 464.550417364057L992.294307401015 464.550417364057L992.294307401015 477.0522962471193L979.7924285179528 477.0522962471193ZM979.7924285179528 464.550417364057L979.7924285179528 452.0485384809947L992.294307401015 452.0485384809947L992.294307401015 464.550417364057L979.7924285179528 464.550417364057ZM979.7924285179528 452.0485384809947L979.7924285179528 439.5692261663134L992.294307401015 439.5692261663134L992.294307401015 452.0485384809947L979.7924285179528 452.0485384809947ZM979.7924285179528 439.5692261663134L979.7924285179528 427.0673472832511L992.294307401015 427.0673472832511L992.294307401015 439.5692261663134L979.7924285179528 439.5692261663134ZM992.294307401015 427.0673472832511L992.294307401015 414.56546840018876L1004.7961862840773 414.56546840018876L1004.7961862840773 427.0673472832511L992.294307401015 427.0673472832511ZM1004.7961862840773 427.0673472832511L1004.7961862840773 414.56546840018876L1017.2980651671396 414.56546840018876L1017.2980651671396 427.0673472832511L1004.7961862840773 427.0673472832511ZM1017.2980651671396 439.5692261663134L1017.2980651671396 427.0673472832511L1029.799944050202 427.0673472832511L1029.799944050202 439.5692261663134L1017.2980651671396 439.5692261663134ZM1017.2980651671396 452.0485384809947L1017.2980651671396 439.5692261663134L1029.799944050202 439.5692261663134L1029.799944050202 452.0485384809947L1017.2980651671396 452.0485384809947ZM1004.7961862840773 452.0485384809947L1004.7961862840773 439.5692261663134L1017.2980651671396 439.5692261663134L1017.2980651671396 452.0485384809947L1004.7961862840773 452.0485384809947ZM992.294307401015 452.0485384809947L992.294307401015 439.5692261663134L1004.7961862840773 439.5692261663134L1004.7961862840773 452.0485384809947L992.294307401015 452.0485384809947ZM1017.2980651671396 477.0522962471193L1017.2980651671396 464.550417364057L1029.799944050202 464.550417364057L1029.799944050202 477.0522962471193L1017.2980651671396 477.0522962471193ZM1042.2792563648832 489.5541751301816L1042.2792563648832 477.0522962471193L1054.7811352479455 477.0522962471193L1054.7811352479455 489.5541751301816L1042.2792563648832 489.5541751301816ZM1067.2830141310078 489.5541751301816L1067.2830141310078 477.0522962471193L1079.7848930140701 477.0522962471193L1079.7848930140701 489.5541751301816L1067.2830141310078 489.5541751301816ZM1054.7811352479455 477.0522962471193L1054.7811352479455 464.550417364057L1067.2830141310078 464.550417364057L1067.2830141310078 477.0522962471193L1054.7811352479455 477.0522962471193ZM1054.7811352479455 464.550417364057L1054.7811352479455 452.0485384809947L1067.2830141310078 452.0485384809947L1067.2830141310078 464.550417364057L1054.7811352479455 464.550417364057ZM1054.7811352479455 452.0485384809947L1054.7811352479455 439.5692261663134L1067.2830141310078 439.5692261663134L1067.2830141310078 452.0485384809947L1054.7811352479455 452.0485384809947ZM1054.7811352479455 439.5692261663134L1054.7811352479455 427.0673472832511L1067.2830141310078 427.0673472832511L1067.2830141310078 439.5692261663134L1054.7811352479455 439.5692261663134ZM1054.7811352479455 427.0673472832511L1054.7811352479455 414.56546840018876L1067.2830141310078 414.56546840018876L1067.2830141310078 427.0673472832511L1054.7811352479455 427.0673472832511ZM1054.7811352479455 414.56546840018876L1054.7811352479455 402.0635895171265L1067.2830141310078 402.0635895171265L1067.2830141310078 414.56546840018876L1054.7811352479455 414.56546840018876ZM1054.7811352479455 402.0635895171265L1054.7811352479455 389.5617106340642L1067.2830141310078 389.5617106340642L1067.2830141310078 402.0635895171265L1054.7811352479455 402.0635895171265ZM1067.2830141310078 389.5617106340642L1067.2830141310078 377.05983175100187L1079.7848930140701 377.05983175100187L1079.7848930140701 389.5617106340642L1067.2830141310078 389.5617106340642ZM1167.2754786271253 427.0673472832511L1167.2754786271253 414.56546840018876L1179.7773575101876 414.56546840018876L1179.7773575101876 427.0673472832511L1167.2754786271253 427.0673472832511ZM1154.773599744063 414.56546840018876L1154.773599744063 402.0635895171265L1167.2754786271253 402.0635895171265L1167.2754786271253 414.56546840018876L1154.773599744063 414.56546840018876ZM1154.773599744063 402.0635895171265L1154.773599744063 389.5617106340642L1167.2754786271253 389.5617106340642L1167.2754786271253 402.0635895171265L1154.773599744063 402.0635895171265ZM1167.2754786271253 389.5617106340642L1167.2754786271253 377.05983175100187L1179.7773575101876 377.05983175100187L1179.7773575101876 389.5617106340642L1167.2754786271253 389.5617106340642ZM1179.7773575101876 389.5617106340642L1179.7773575101876 377.05983175100187L1192.27923639325 377.05983175100187L1192.27923639325 389.5617106340642L1179.7773575101876 389.5617106340642ZM1192.27923639325 389.5617106340642L1192.27923639325 377.05983175100187L1204.7585487079311 377.05983175100187L1204.7585487079311 389.5617106340642L1192.27923639325 389.5617106340642ZM1204.7585487079311 389.5617106340642L1204.7585487079311 377.05983175100187L1217.2604275909935 377.05983175100187L1217.2604275909935 389.5617106340642L1204.7585487079311 389.5617106340642ZM1217.2604275909935 402.0635895171265L1217.2604275909935 389.5617106340642L1229.7623064740558 389.5617106340642L1229.7623064740558 402.0635895171265L1217.2604275909935 402.0635895171265ZM1229.7623064740558 414.56546840018876L1229.7623064740558 402.0635895171265L1242.264185357118 402.0635895171265L1242.264185357118 414.56546840018876L1229.7623064740558 414.56546840018876ZM1242.264185357118 414.56546840018876L1242.264185357118 402.0635895171265L1254.7660642401804 402.0635895171265L1254.7660642401804 414.56546840018876L1242.264185357118 414.56546840018876ZM1254.7660642401804 402.0635895171265L1254.7660642401804 389.5617106340642L1267.2679431232427 389.5617106340642L1267.2679431232427 402.0635895171265L1254.7660642401804 402.0635895171265ZM1254.7660642401804 389.5617106340642L1254.7660642401804 377.05983175100187L1267.2679431232427 377.05983175100187L1267.2679431232427 389.5617106340642L1254.7660642401804 389.5617106340642ZM1242.264185357118 389.5617106340642L1242.264185357118 377.05983175100187L1254.7660642401804 377.05983175100187L1254.7660642401804 389.5617106340642L1242.264185357118 389.5617106340642ZM1217.2604275909935 427.0673472832511L1217.2604275909935 414.56546840018876L1229.7623064740558 414.56546840018876L1229.7623064740558 427.0673472832511L1217.2604275909935 427.0673472832511ZM1217.2604275909935 439.5692261663134L1217.2604275909935 427.0673472832511L1229.7623064740558 427.0673472832511L1229.7623064740558 439.5692261663134L1217.2604275909935 439.5692261663134ZM1217.2604275909935 452.0485384809947L1217.2604275909935 439.5692261663134L1229.7623064740558 439.5692261663134L1229.7623064740558 452.0485384809947L1217.2604275909935 452.0485384809947ZM1229.7623064740558 452.0485384809947L1229.7623064740558 439.5692261663134L1242.264185357118 439.5692261663134L1242.264185357118 452.0485384809947L1229.7623064740558 452.0485384809947ZM1229.7623064740558 464.550417364057L1229.7623064740558 452.0485384809947L1242.264185357118 452.0485384809947L1242.264185357118 464.550417364057L1229.7623064740558 464.550417364057ZM1242.264185357118 464.550417364057L1242.264185357118 452.0485384809947L1254.7660642401804 452.0485384809947L1254.7660642401804 464.550417364057L1242.264185357118 464.550417364057ZM1242.264185357118 477.0522962471193L1242.264185357118 464.550417364057L1254.7660642401804 464.550417364057L1254.7660642401804 477.0522962471193L1242.264185357118 477.0522962471193ZM1254.7660642401804 477.0522962471193L1254.7660642401804 464.550417364057L1267.2679431232427 464.550417364057L1267.2679431232427 477.0522962471193L1254.7660642401804 477.0522962471193ZM1254.7660642401804 489.5541751301816L1254.7660642401804 477.0522962471193L1267.2679431232427 477.0522962471193L1267.2679431232427 489.5541751301816L1254.7660642401804 489.5541751301816ZM1254.7660642401804 502.0560540132439L1254.7660642401804 489.5541751301816L1267.2679431232427 489.5541751301816L1267.2679431232427 502.0560540132439L1254.7660642401804 502.0560540132439ZM1242.264185357118 514.5579328963063L1242.264185357118 502.0560540132439L1254.7660642401804 502.0560540132439L1254.7660642401804 514.5579328963063L1242.264185357118 514.5579328963063ZM1229.7623064740558 527.0598117793685L1229.7623064740558 514.5579328963063L1242.264185357118 514.5579328963063L1242.264185357118 527.0598117793685L1229.7623064740558 527.0598117793685ZM1217.2604275909935 527.0598117793685L1217.2604275909935 514.5579328963063L1229.7623064740558 514.5579328963063L1229.7623064740558 527.0598117793685L1217.2604275909935 527.0598117793685ZM1204.7585487079311 527.0598117793685L1204.7585487079311 514.5579328963063L1217.2604275909935 514.5579328963063L1217.2604275909935 527.0598117793685L1204.7585487079311 527.0598117793685ZM1192.27923639325 527.0598117793685L1192.27923639325 514.5579328963063L1204.7585487079311 514.5579328963063L1204.7585487079311 527.0598117793685L1192.27923639325 527.0598117793685ZM1179.7773575101876 514.5579328963063L1179.7773575101876 502.0560540132439L1192.27923639325 502.0560540132439L1192.27923639325 514.5579328963063L1179.7773575101876 514.5579328963063ZM1167.2754786271253 502.0560540132439L1167.2754786271253 489.5541751301816L1179.7773575101876 489.5541751301816L1179.7773575101876 502.0560540132439L1167.2754786271253 502.0560540132439ZM1167.2754786271253 489.5541751301816L1167.2754786271253 477.0522962471193L1179.7773575101876 477.0522962471193L1179.7773575101876 489.5541751301816L1167.2754786271253 489.5541751301816ZM1179.7773575101876 477.0522962471193L1179.7773575101876 464.550417364057L1192.27923639325 464.550417364057L1192.27923639325 477.0522962471193L1179.7773575101876 477.0522962471193ZM1192.27923639325 464.550417364057L1192.27923639325 452.0485384809947L1204.7585487079311 452.0485384809947L1204.7585487079311 464.550417364057L1192.27923639325 464.550417364057ZM1192.27923639325 452.0485384809947L1192.27923639325 439.5692261663134L1204.7585487079311 439.5692261663134L1204.7585487079311 452.0485384809947L1192.27923639325 452.0485384809947ZM1179.7773575101876 452.0485384809947L1179.7773575101876 439.5692261663134L1192.27923639325 439.5692261663134L1192.27923639325 452.0485384809947L1179.7773575101876 452.0485384809947ZM1242.264185357118 439.5692261663134L1242.264185357118 427.0673472832511L1254.7660642401804 427.0673472832511L1254.7660642401804 439.5692261663134L1242.264185357118 439.5692261663134ZM1254.7660642401804 439.5692261663134L1254.7660642401804 427.0673472832511L1267.2679431232427 427.0673472832511L1267.2679431232427 439.5692261663134L1254.7660642401804 439.5692261663134ZM1279.747255437924 489.5541751301816L1279.747255437924 477.0522962471193L1292.2491343209863 477.0522962471193L1292.2491343209863 489.5541751301816L1279.747255437924 489.5541751301816ZM1292.2491343209863 477.0522962471193L1292.2491343209863 464.550417364057L1304.7510132040486 464.550417364057L1304.7510132040486 477.0522962471193L1292.2491343209863 477.0522962471193ZM1292.2491343209863 464.550417364057L1292.2491343209863 452.0485384809947L1304.7510132040486 452.0485384809947L1304.7510132040486 464.550417364057L1292.2491343209863 464.550417364057ZM1292.2491343209863 452.0485384809947L1292.2491343209863 439.5692261663134L1304.7510132040486 439.5692261663134L1304.7510132040486 452.0485384809947L1292.2491343209863 452.0485384809947ZM1292.2491343209863 439.5692261663134L1292.2491343209863 427.0673472832511L1304.7510132040486 427.0673472832511L1304.7510132040486 439.5692261663134L1292.2491343209863 439.5692261663134ZM1304.7510132040486 489.5541751301816L1304.7510132040486 477.0522962471193L1317.2528920871107 477.0522962471193L1317.2528920871107 489.5541751301816L1304.7510132040486 489.5541751301816ZM1317.2528920871107 489.5541751301816L1317.2528920871107 477.0522962471193L1329.7547709701732 477.0522962471193L1329.7547709701732 489.5541751301816L1317.2528920871107 489.5541751301816ZM1329.7547709701732 477.0522962471193L1329.7547709701732 464.550417364057L1342.2566498532353 464.550417364057L1342.2566498532353 477.0522962471193L1329.7547709701732 477.0522962471193ZM1329.7547709701732 464.550417364057L1329.7547709701732 452.0485384809947L1342.2566498532353 452.0485384809947L1342.2566498532353 464.550417364057L1329.7547709701732 464.550417364057ZM1329.7547709701732 452.0485384809947L1329.7547709701732 439.5692261663134L1342.2566498532353 439.5692261663134L1342.2566498532353 452.0485384809947L1329.7547709701732 452.0485384809947ZM1329.7547709701732 439.5692261663134L1329.7547709701732 427.0673472832511L1342.2566498532353 427.0673472832511L1342.2566498532353 439.5692261663134L1329.7547709701732 439.5692261663134ZM1304.7510132040486 427.0673472832511L1304.7510132040486 414.56546840018876L1317.2528920871107 414.56546840018876L1317.2528920871107 427.0673472832511L1304.7510132040486 427.0673472832511ZM1317.2528920871107 427.0673472832511L1317.2528920871107 414.56546840018876L1329.7547709701732 414.56546840018876L1329.7547709701732 427.0673472832511L1317.2528920871107 427.0673472832511ZM1342.2566498532353 427.0673472832511L1342.2566498532353 414.56546840018876L1354.7585287362979 414.56546840018876L1354.7585287362979 427.0673472832511L1342.2566498532353 427.0673472832511ZM1392.2415988171035 464.550417364057L1392.2415988171035 452.0485384809947L1404.743477700166 452.0485384809947L1404.743477700166 464.550417364057L1392.2415988171035 464.550417364057ZM1392.2415988171035 452.0485384809947L1392.2415988171035 439.5692261663134L1404.743477700166 439.5692261663134L1404.743477700166 452.0485384809947L1392.2415988171035 452.0485384809947ZM1392.2415988171035 439.5692261663134L1392.2415988171035 427.0673472832511L1404.743477700166 427.0673472832511L1404.743477700166 439.5692261663134L1392.2415988171035 439.5692261663134ZM1379.7397199340414 427.0673472832511L1379.7397199340414 414.56546840018876L1392.2415988171035 414.56546840018876L1392.2415988171035 427.0673472832511L1379.7397199340414 427.0673472832511ZM1367.237841050979 439.5692261663134L1367.237841050979 427.0673472832511L1379.7397199340414 427.0673472832511L1379.7397199340414 439.5692261663134L1367.237841050979 439.5692261663134ZM1404.743477700166 427.0673472832511L1404.743477700166 414.56546840018876L1417.2453565832282 414.56546840018876L1417.2453565832282 427.0673472832511L1404.743477700166 427.0673472832511ZM1417.2453565832282 427.0673472832511L1417.2453565832282 414.56546840018876L1429.7472354662907 414.56546840018876L1429.7472354662907 427.0673472832511L1417.2453565832282 427.0673472832511ZM1429.7472354662907 439.5692261663134L1429.7472354662907 427.0673472832511L1442.2265477809717 427.0673472832511L1442.2265477809717 439.5692261663134L1429.7472354662907 439.5692261663134ZM1392.2415988171035 477.0522962471193L1392.2415988171035 464.550417364057L1404.743477700166 464.550417364057L1404.743477700166 477.0522962471193L1392.2415988171035 477.0522962471193ZM1379.7397199340414 489.5541751301816L1379.7397199340414 477.0522962471193L1392.2415988171035 477.0522962471193L1392.2415988171035 489.5541751301816L1379.7397199340414 489.5541751301816ZM1417.2453565832282 477.0522962471193L1417.2453565832282 464.550417364057L1429.7472354662907 464.550417364057L1429.7472354662907 477.0522962471193L1417.2453565832282 477.0522962471193ZM1404.743477700166 489.5541751301816L1404.743477700166 477.0522962471193L1417.2453565832282 477.0522962471193L1417.2453565832282 489.5541751301816L1404.743477700166 489.5541751301816ZM1492.234063313221 477.0522962471193L1492.234063313221 464.550417364057L1504.7359421962835 464.550417364057L1504.7359421962835 477.0522962471193L1492.234063313221 477.0522962471193ZM1479.732184430159 489.5541751301816L1479.732184430159 477.0522962471193L1492.234063313221 477.0522962471193L1492.234063313221 489.5541751301816L1479.732184430159 489.5541751301816ZM1467.2303055470963 477.0522962471193L1467.2303055470963 464.550417364057L1479.732184430159 464.550417364057L1479.732184430159 477.0522962471193L1467.2303055470963 477.0522962471193ZM1467.2303055470963 464.550417364057L1467.2303055470963 452.0485384809947L1479.732184430159 452.0485384809947L1479.732184430159 464.550417364057L1467.2303055470963 464.550417364057ZM1467.2303055470963 452.0485384809947L1467.2303055470963 439.5692261663134L1479.732184430159 439.5692261663134L1479.732184430159 452.0485384809947L1467.2303055470963 452.0485384809947ZM1467.2303055470963 439.5692261663134L1467.2303055470963 427.0673472832511L1479.732184430159 427.0673472832511L1479.732184430159 439.5692261663134L1467.2303055470963 439.5692261663134ZM1454.7284266640343 427.0673472832511L1454.7284266640343 414.56546840018876L1467.2303055470963 414.56546840018876L1467.2303055470963 427.0673472832511L1454.7284266640343 427.0673472832511ZM1479.732184430159 427.0673472832511L1479.732184430159 414.56546840018876L1492.234063313221 414.56546840018876L1492.234063313221 427.0673472832511L1479.732184430159 427.0673472832511ZM1467.2303055470963 414.56546840018876L1467.2303055470963 402.0635895171265L1479.732184430159 402.0635895171265L1479.732184430159 414.56546840018876L1467.2303055470963 414.56546840018876ZM1479.732184430159 402.0635895171265L1479.732184430159 389.5617106340642L1492.234063313221 389.5617106340642L1492.234063313221 402.0635895171265L1479.732184430159 402.0635895171265ZM1467.2303055470963 427.0673472832511L1467.2303055470963 414.56546840018876L1479.732184430159 414.56546840018876L1479.732184430159 427.0673472832511L1467.2303055470963 427.0673472832511ZM1492.234063313221 427.0673472832511L1492.234063313221 414.56546840018876L1504.7359421962835 414.56546840018876L1504.7359421962835 427.0673472832511L1492.234063313221 427.0673472832511ZM1542.2190122770892 464.550417364057L1542.2190122770892 452.0485384809947L1554.7208911601517 452.0485384809947L1554.7208911601517 464.550417364057L1542.2190122770892 464.550417364057ZM1542.2190122770892 452.0485384809947L1542.2190122770892 439.5692261663134L1554.7208911601517 439.5692261663134L1554.7208911601517 452.0485384809947L1542.2190122770892 452.0485384809947ZM1542.2190122770892 439.5692261663134L1542.2190122770892 427.0673472832511L1554.7208911601517 427.0673472832511L1554.7208911601517 439.5692261663134L1542.2190122770892 439.5692261663134ZM1529.717133394027 427.0673472832511L1529.717133394027 414.56546840018876L1542.2190122770892 414.56546840018876L1542.2190122770892 427.0673472832511L1529.717133394027 427.0673472832511ZM1517.2378210793456 439.5692261663134L1517.2378210793456 427.0673472832511L1529.717133394027 427.0673472832511L1529.717133394027 439.5692261663134L1517.2378210793456 439.5692261663134ZM1554.7208911601517 427.0673472832511L1554.7208911601517 414.56546840018876L1567.2227700432138 414.56546840018876L1567.2227700432138 427.0673472832511L1554.7208911601517 427.0673472832511ZM1567.2227700432138 427.0673472832511L1567.2227700432138 414.56546840018876L1579.7246489262761 414.56546840018876L1579.7246489262761 427.0673472832511L1567.2227700432138 427.0673472832511ZM1579.7246489262761 439.5692261663134L1579.7246489262761 427.0673472832511L1592.2265278093384 427.0673472832511L1592.2265278093384 439.5692261663134L1579.7246489262761 439.5692261663134ZM1542.2190122770892 477.0522962471193L1542.2190122770892 464.550417364057L1554.7208911601517 464.550417364057L1554.7208911601517 477.0522962471193L1542.2190122770892 477.0522962471193ZM1529.717133394027 489.5541751301816L1529.717133394027 477.0522962471193L1542.2190122770892 477.0522962471193L1542.2190122770892 489.5541751301816L1529.717133394027 489.5541751301816ZM1567.2227700432138 477.0522962471193L1567.2227700432138 464.550417364057L1579.7246489262761 464.550417364057L1579.7246489262761 477.0522962471193L1567.2227700432138 477.0522962471193ZM1554.7208911601517 489.5541751301816L1554.7208911601517 477.0522962471193L1567.2227700432138 477.0522962471193L1567.2227700432138 489.5541751301816L1554.7208911601517 489.5541751301816ZM1604.70584012402 489.5541751301816L1604.70584012402 477.0522962471193L1617.207719007082 477.0522962471193L1617.207719007082 489.5541751301816L1604.70584012402 489.5541751301816ZM1629.7095978901446 489.5541751301816L1629.7095978901446 477.0522962471193L1642.2114767732066 477.0522962471193L1642.2114767732066 489.5541751301816L1629.7095978901446 489.5541751301816ZM1642.2114767732066 489.5541751301816L1642.2114767732066 477.0522962471193L1654.713355656269 477.0522962471193L1654.713355656269 489.5541751301816L1642.2114767732066 489.5541751301816ZM1617.207719007082 477.0522962471193L1617.207719007082 464.550417364057L1629.7095978901446 464.550417364057L1629.7095978901446 477.0522962471193L1617.207719007082 477.0522962471193ZM1617.207719007082 464.550417364057L1617.207719007082 452.0485384809947L1629.7095978901446 452.0485384809947L1629.7095978901446 464.550417364057L1617.207719007082 464.550417364057ZM1617.207719007082 452.0485384809947L1617.207719007082 439.5692261663134L1629.7095978901446 439.5692261663134L1629.7095978901446 452.0485384809947L1617.207719007082 452.0485384809947ZM1617.207719007082 439.5692261663134L1617.207719007082 427.0673472832511L1629.7095978901446 427.0673472832511L1629.7095978901446 439.5692261663134L1617.207719007082 439.5692261663134ZM1629.7095978901446 427.0673472832511L1629.7095978901446 414.56546840018876L1642.2114767732066 414.56546840018876L1642.2114767732066 427.0673472832511L1629.7095978901446 427.0673472832511ZM1642.2114767732066 427.0673472832511L1642.2114767732066 414.56546840018876L1654.713355656269 414.56546840018876L1654.713355656269 427.0673472832511L1642.2114767732066 427.0673472832511ZM1654.713355656269 439.5692261663134L1654.713355656269 427.0673472832511L1667.2152345393313 427.0673472832511L1667.2152345393313 439.5692261663134L1654.713355656269 439.5692261663134ZM1654.713355656269 452.0485384809947L1654.713355656269 439.5692261663134L1667.2152345393313 439.5692261663134L1667.2152345393313 452.0485384809947L1654.713355656269 452.0485384809947ZM1642.2114767732066 452.0485384809947L1642.2114767732066 439.5692261663134L1654.713355656269 439.5692261663134L1654.713355656269 452.0485384809947L1642.2114767732066 452.0485384809947ZM1629.7095978901446 452.0485384809947L1629.7095978901446 439.5692261663134L1642.2114767732066 439.5692261663134L1642.2114767732066 452.0485384809947L1629.7095978901446 452.0485384809947ZM1654.713355656269 477.0522962471193L1654.713355656269 464.550417364057L1667.2152345393313 464.550417364057L1667.2152345393313 477.0522962471193L1654.713355656269 477.0522962471193ZM1704.698304620137 427.0673472832511L1704.698304620137 414.56546840018876L1717.2001835031995 414.56546840018876L1717.2001835031995 427.0673472832511L1704.698304620137 427.0673472832511ZM1717.2001835031995 427.0673472832511L1717.2001835031995 414.56546840018876L1729.702062386262 414.56546840018876L1729.702062386262 427.0673472832511L1717.2001835031995 427.0673472832511ZM1742.203941269324 427.0673472832511L1742.203941269324 414.56546840018876L1754.7058201523862 414.56546840018876L1754.7058201523862 427.0673472832511L1742.203941269324 427.0673472832511ZM1729.702062386262 439.5692261663134L1729.702062386262 427.0673472832511L1742.203941269324 427.0673472832511L1742.203941269324 439.5692261663134L1729.702062386262 439.5692261663134ZM1717.2001835031995 452.0485384809947L1717.2001835031995 439.5692261663134L1729.702062386262 439.5692261663134L1729.702062386262 452.0485384809947L1717.2001835031995 452.0485384809947ZM1704.698304620137 464.550417364057L1704.698304620137 452.0485384809947L1717.2001835031995 452.0485384809947L1717.2001835031995 464.550417364057L1704.698304620137 464.550417364057ZM1692.1964257370748 477.0522962471193L1692.1964257370748 464.550417364057L1704.698304620137 464.550417364057L1704.698304620137 477.0522962471193L1692.1964257370748 477.0522962471193ZM1679.7171134223934 489.5541751301816L1679.7171134223934 477.0522962471193L1692.1964257370748 477.0522962471193L1692.1964257370748 489.5541751301816L1679.7171134223934 489.5541751301816ZM1692.1964257370748 439.5692261663134L1692.1964257370748 427.0673472832511L1704.698304620137 427.0673472832511L1704.698304620137 439.5692261663134L1692.1964257370748 439.5692261663134ZM1692.1964257370748 452.0485384809947L1692.1964257370748 439.5692261663134L1704.698304620137 439.5692261663134L1704.698304620137 452.0485384809947L1692.1964257370748 452.0485384809947ZM1729.702062386262 464.550417364057L1729.702062386262 452.0485384809947L1742.203941269324 452.0485384809947L1742.203941269324 464.550417364057L1729.702062386262 464.550417364057ZM1729.702062386262 477.0522962471193L1729.702062386262 464.550417364057L1742.203941269324 464.550417364057L1742.203941269324 477.0522962471193L1729.702062386262 477.0522962471193ZM1717.2001835031995 489.5541751301816L1717.2001835031995 477.0522962471193L1729.702062386262 477.0522962471193L1729.702062386262 489.5541751301816L1717.2001835031995 489.5541751301816ZM1704.698304620137 489.5541751301816L1704.698304620137 477.0522962471193L1717.2001835031995 477.0522962471193L1717.2001835031995 489.5541751301816L1704.698304620137 489.5541751301816ZM1792.1888902331923 427.0673472832511L1792.1888902331923 414.56546840018876L1804.6907691162548 414.56546840018876L1804.6907691162548 427.0673472832511L1792.1888902331923 427.0673472832511ZM1804.6907691162548 427.0673472832511L1804.6907691162548 414.56546840018876L1817.192647999317 414.56546840018876L1817.192647999317 427.0673472832511L1804.6907691162548 427.0673472832511ZM1829.694526882379 427.0673472832511L1829.694526882379 414.56546840018876L1842.1964057654416 414.56546840018876L1842.1964057654416 427.0673472832511L1829.694526882379 427.0673472832511ZM1817.192647999317 439.5692261663134L1817.192647999317 427.0673472832511L1829.694526882379 427.0673472832511L1829.694526882379 439.5692261663134L1817.192647999317 439.5692261663134ZM1804.6907691162548 452.0485384809947L1804.6907691162548 439.5692261663134L1817.192647999317 439.5692261663134L1817.192647999317 452.0485384809947L1804.6907691162548 452.0485384809947ZM1792.1888902331923 464.550417364057L1792.1888902331923 452.0485384809947L1804.6907691162548 452.0485384809947L1804.6907691162548 464.550417364057L1792.1888902331923 464.550417364057ZM1779.6870113501298 477.0522962471193L1779.6870113501298 464.550417364057L1792.1888902331923 464.550417364057L1792.1888902331923 477.0522962471193L1779.6870113501298 477.0522962471193ZM1767.1851324670677 489.5541751301816L1767.1851324670677 477.0522962471193L1779.6870113501298 477.0522962471193L1779.6870113501298 489.5541751301816L1767.1851324670677 489.5541751301816ZM1779.6870113501298 439.5692261663134L1779.6870113501298 427.0673472832511L1792.1888902331923 427.0673472832511L1792.1888902331923 439.5692261663134L1779.6870113501298 439.5692261663134ZM1779.6870113501298 452.0485384809947L1779.6870113501298 439.5692261663134L1792.1888902331923 439.5692261663134L1792.1888902331923 452.0485384809947L1779.6870113501298 452.0485384809947ZM1817.192647999317 464.550417364057L1817.192647999317 452.0485384809947L1829.694526882379 452.0485384809947L1829.694526882379 464.550417364057L1817.192647999317 464.550417364057ZM1817.192647999317 477.0522962471193L1817.192647999317 464.550417364057L1829.694526882379 464.550417364057L1829.694526882379 477.0522962471193L1817.192647999317 477.0522962471193ZM1804.6907691162548 489.5541751301816L1804.6907691162548 477.0522962471193L1817.192647999317 477.0522962471193L1817.192647999317 489.5541751301816L1804.6907691162548 489.5541751301816ZM1792.1888902331923 489.5541751301816L1792.1888902331923 477.0522962471193L1804.6907691162548 477.0522962471193L1804.6907691162548 489.5541751301816L1792.1888902331923 489.5541751301816Z " fill="#317773" transform="matrix(0.47497646377063635,0,0,0.47497646377063635,0,85.28222154314399)"/></g></svg>